# xmcd CD database file
#
# Track frame offsets:
#	163
#	14369
#	32687
#	44044
#	58199
#	68723
#	78545
#	92171
#	105826
#	116563
#	127875
#	141254
#	152168
#	169009
#	181608
#	193302
#	206083
#	219937
#
# Disc length: 3412 seconds
#
# Revision: 0
# Processed by: cddbd v1.5.2PL0 Copyright (c) Steve Scherf et al.
# Submitted via: CDex 1.51
#
DISCID=fa0d5212
DTITLE=Various Artist - The Original Jazz Box Set - CD2
DYEAR=2006
DGENRE=Jazz
TTITLE0=Duke Ellington and Louis Armstrong - I'm Just A Lucky So And So
TTITLE1=Nina Simone - (I Loves You) Porgy (Live At The Newport Jazz Festival)
TTITLE2=Nat King Cole - A Blossom Fell
TTITLE3=Peggy Lee - Baby You Can Count On Me
TTITLE4=Tony Bennett and Count Basie - Anything Goes
TTITLE5=Julie London - Mad About The Boy
TTITLE6=Dinah Washington - Lover Man (Oh Where Can You Be)
TTITLE7=Ella Fttzgerald - It's Only Love
TTITLE8=George Shearing Quintet With Nancy Wilson - On Green Dolphin Street
TTITLE9=Mel Torme - You're A Heavenly Thing
TTITLE10=Chet Baker - I Get Along Without You Very Well ( Except Sometimes)
TTITLE11=Sarah Vaughn - Ev'ry Time We Say Goodbye
TTITLE12=Lou Rawls - (They Call It) Stormy Monday
TTITLE13=Kay Starr - You've Got To See Mamma Ev'ry Night (Or You Can't See Mamma At All)
TTITLE14=Stan Kenton and His Orchestra With June Christy - How High The Moon (Live)
TTITLE15=Billy Holiday - My Man (Live in Koln Germany)
TTITLE16=Eartha Kitt - The Girl From Ipanema
TTITLE17=Marlena Shaw - Woman Of The Ghetto (Live)
EXTD=YEAR: 2006
EXTT0=
EXTT1=
EXTT2=
EXTT3=
EXTT4=
EXTT5=
EXTT6=
EXTT7=
EXTT8=
EXTT9=
EXTT10=
EXTT11=
EXTT12=
EXTT13=
EXTT14=
EXTT15=
EXTT16=
EXTT17=
PLAYORDER=
